<mxfile host="app.diagrams.net" modified="2023-04-09T18:28:27.221Z" agent="Mozilla/5.0 (Windows NT 10.0; Win64; x64) AppleWebKit/537.36 (KHTML, like Gecko) Chrome/110.0.0.0 YaBrowser/23.3.1.806 Yowser/2.5 Safari/537.36" etag="WNsusoPcsdp7igGh7HRi" version="21.1.5" type="github">
  <diagram name="Страница 1" id="Pl8tmo3BDIzH8LvuWlIA">
    <mxGraphModel dx="1434" dy="791" grid="1" gridSize="10" guides="1" tooltips="1" connect="1" arrows="1" fold="1" page="1" pageScale="1" pageWidth="827" pageHeight="1169" background="#ffffff" math="0" shadow="0">
      <root>
        <mxCell id="0" />
        <mxCell id="1" parent="0" />
        <mxCell id="QGDjtv83rxYMOD5J0k_L-3" value="&lt;b&gt;&lt;font style=&quot;font-size: 14px;&quot;&gt;Схема с данными сессий и пользователей (authorization)&lt;/font&gt;&lt;/b&gt;&lt;font style=&quot;&quot;&gt;&lt;b style=&quot;&quot;&gt;&lt;br&gt;&lt;br&gt;&lt;br&gt;&lt;/b&gt;&lt;/font&gt;" style="rounded=0;whiteSpace=wrap;html=1;verticalAlign=top;dashed=1;dashPattern=12 12;" parent="1" vertex="1">
          <mxGeometry x="89" y="200" width="650" height="210" as="geometry" />
        </mxCell>
        <mxCell id="QGDjtv83rxYMOD5J0k_L-1" value="Version 1" style="text;html=1;strokeColor=none;fillColor=none;align=center;verticalAlign=middle;whiteSpace=wrap;rounded=0;" parent="1" vertex="1">
          <mxGeometry x="760" width="67" height="40" as="geometry" />
        </mxCell>
        <mxCell id="QGDjtv83rxYMOD5J0k_L-2" value="Sessions Database Structure (PostgreSQL)" style="rounded=0;whiteSpace=wrap;html=1;fontSize=14;fontStyle=1" parent="1" vertex="1">
          <mxGeometry width="320" height="40" as="geometry" />
        </mxCell>
        <mxCell id="QGDjtv83rxYMOD5J0k_L-5" value="&lt;span style=&quot;border-color: var(--border-color);&quot;&gt;&lt;font style=&quot;border-color: var(--border-color);&quot;&gt;&lt;font style=&quot;font-weight: bold; font-size: 13px;&quot;&gt;Таблица с сессиями (sessions)&lt;/font&gt;&lt;br&gt;ID (session_id) *varchar(40)&lt;br&gt;Время последнего входа (last_date_entry) *timestampz&lt;br&gt;&lt;/font&gt;&lt;/span&gt;" style="rounded=0;whiteSpace=wrap;html=1;dashed=1;" parent="1" vertex="1">
          <mxGeometry x="99" y="232" width="310" height="78" as="geometry" />
        </mxCell>
        <mxCell id="KMMAjMf7LRbqyUZRAZh1-1" value="&lt;font style=&quot;&quot;&gt;&lt;b style=&quot;font-size: 13px;&quot;&gt;Таблица с пользователями (users)&lt;/b&gt;&lt;br&gt;ID (user_id) *serial&lt;br&gt;Имя пользователя (name) *varchar(30)&lt;br&gt;Токен пользователя (token) *varchar(50)&lt;br&gt;&lt;/font&gt;" style="rounded=0;whiteSpace=wrap;html=1;dashed=1;" vertex="1" parent="1">
          <mxGeometry x="419" y="232" width="310" height="78" as="geometry" />
        </mxCell>
        <mxCell id="KMMAjMf7LRbqyUZRAZh1-2" value="&lt;font style=&quot;&quot;&gt;&lt;b style=&quot;font-size: 13px;&quot;&gt;Связь сессии с пользователем (user_sessions)&lt;/b&gt;&lt;br&gt;&lt;font style=&quot;font-size: 12px;&quot;&gt;ID (user_ud)*int4&lt;br&gt;&lt;/font&gt;ID (session_id) *varchar(40)&lt;br&gt;&lt;/font&gt;" style="rounded=0;whiteSpace=wrap;html=1;dashed=1;" vertex="1" parent="1">
          <mxGeometry x="99" y="320" width="310" height="78" as="geometry" />
        </mxCell>
        <mxCell id="KMMAjMf7LRbqyUZRAZh1-7" style="edgeStyle=orthogonalEdgeStyle;rounded=0;orthogonalLoop=1;jettySize=auto;html=1;exitX=1;exitY=0.5;exitDx=0;exitDy=0;entryX=0;entryY=0.5;entryDx=0;entryDy=0;startArrow=ERone;startFill=0;endArrow=ERone;endFill=0;" edge="1" parent="1" source="KMMAjMf7LRbqyUZRAZh1-3" target="KMMAjMf7LRbqyUZRAZh1-4">
          <mxGeometry relative="1" as="geometry" />
        </mxCell>
        <mxCell id="KMMAjMf7LRbqyUZRAZh1-3" value="&lt;div style=&quot;box-sizing:border-box;width:100%;background:#e4e4e4;padding:2px;&quot;&gt;sessions&lt;/div&gt;&lt;table style=&quot;width:100%;font-size:1em;&quot; cellpadding=&quot;2&quot; cellspacing=&quot;0&quot;&gt;&lt;tbody&gt;&lt;tr&gt;&lt;td&gt;PK (varchar(40))&lt;/td&gt;&lt;td&gt;session_id&lt;/td&gt;&lt;/tr&gt;&lt;tr&gt;&lt;td&gt;timestampz&lt;/td&gt;&lt;td&gt;last_date_entry&lt;/td&gt;&lt;/tr&gt;&lt;/tbody&gt;&lt;/table&gt;" style="verticalAlign=top;align=left;overflow=fill;html=1;whiteSpace=wrap;" vertex="1" parent="1">
          <mxGeometry x="40" y="80" width="200" height="80" as="geometry" />
        </mxCell>
        <mxCell id="KMMAjMf7LRbqyUZRAZh1-4" value="&lt;div style=&quot;box-sizing:border-box;width:100%;background:#e4e4e4;padding:2px;&quot;&gt;user_sessions&lt;/div&gt;&lt;table style=&quot;width:100%;font-size:1em;&quot; cellpadding=&quot;2&quot; cellspacing=&quot;0&quot;&gt;&lt;tbody&gt;&lt;tr&gt;&lt;td&gt;FK1&lt;/td&gt;&lt;td&gt;user_id&lt;/td&gt;&lt;/tr&gt;&lt;tr&gt;&lt;td&gt;FK2(varchar(40))&lt;/td&gt;&lt;td&gt;session_id&lt;/td&gt;&lt;/tr&gt;&lt;/tbody&gt;&lt;/table&gt;" style="verticalAlign=top;align=left;overflow=fill;html=1;whiteSpace=wrap;" vertex="1" parent="1">
          <mxGeometry x="320" y="80" width="200" height="80" as="geometry" />
        </mxCell>
        <mxCell id="KMMAjMf7LRbqyUZRAZh1-6" style="edgeStyle=orthogonalEdgeStyle;rounded=0;orthogonalLoop=1;jettySize=auto;html=1;exitX=0;exitY=0.5;exitDx=0;exitDy=0;entryX=1;entryY=0.5;entryDx=0;entryDy=0;startArrow=ERone;startFill=0;endArrow=ERone;endFill=0;" edge="1" parent="1" source="KMMAjMf7LRbqyUZRAZh1-5" target="KMMAjMf7LRbqyUZRAZh1-4">
          <mxGeometry relative="1" as="geometry" />
        </mxCell>
        <mxCell id="KMMAjMf7LRbqyUZRAZh1-5" value="&lt;div style=&quot;box-sizing:border-box;width:100%;background:#e4e4e4;padding:2px;&quot;&gt;users&lt;/div&gt;&lt;table style=&quot;width:100%;font-size:1em;&quot; cellpadding=&quot;2&quot; cellspacing=&quot;0&quot;&gt;&lt;tbody&gt;&lt;tr&gt;&lt;td&gt;PK&lt;/td&gt;&lt;td&gt;user_id&lt;/td&gt;&lt;/tr&gt;&lt;tr&gt;&lt;td&gt;varchar(30)&lt;/td&gt;&lt;td&gt;name&lt;/td&gt;&lt;/tr&gt;&lt;tr&gt;&lt;td&gt;varchar(50)&lt;/td&gt;&lt;td&gt;token&lt;/td&gt;&lt;/tr&gt;&lt;/tbody&gt;&lt;/table&gt;" style="verticalAlign=top;align=left;overflow=fill;html=1;whiteSpace=wrap;" vertex="1" parent="1">
          <mxGeometry x="600" y="80" width="200" height="80" as="geometry" />
        </mxCell>
      </root>
    </mxGraphModel>
  </diagram>
</mxfile>
